<svg xmlns="http://www.w3.org/2000/svg" xmlns:xlink="http://www.w3.org/1999/xlink" width="1600" zoomAndPan="magnify" viewBox="0 0 1200 290.999983" height="388" preserveAspectRatio="xMidYMid meet" version="1.0"><defs><g/><clipPath id="32b6ef6155"><path d="M 150.042969 66 L 453 66 L 453 215 L 150.042969 215 Z M 150.042969 66 " clip-rule="nonzero"/></clipPath><clipPath id="0e31e3bd67"><path d="M 272 40.050781 L 483.011719 40.050781 L 483.011719 251.53125 L 272 251.53125 Z M 272 40.050781 " clip-rule="nonzero"/></clipPath></defs><g clip-path="url(#32b6ef6155)"><path fill="#ffffff" d="M 277.695312 197.121094 C 291.144531 190.96875 302.832031 184.1875 312.398438 177.90625 C 330.699219 165.902344 354.09375 143.578125 355.375 141.792969 L 346.804688 136.050781 L 339.378906 131.078125 L 362.882812 130.15625 L 370.433594 129.859375 L 372.488281 122.570312 L 378.878906 99.882812 L 387.015625 122 L 389.628906 129.109375 L 397.183594 128.8125 L 420.6875 127.890625 L 402.210938 142.484375 L 396.273438 147.167969 L 398.890625 154.277344 L 407.027344 176.394531 L 387.46875 163.296875 L 381.191406 159.085938 L 375.253906 163.773438 L 356.777344 178.363281 L 359.949219 167.089844 L 363.164062 155.679688 L 363.5625 154.261719 C 341.074219 171.132812 309.609375 187.390625 290.796875 193.402344 C 286.484375 194.78125 282.113281 196.019531 277.695312 197.121094 Z M 233.460938 214.394531 C 266.800781 213.089844 306.515625 204.597656 345.601562 179.667969 L 338.070312 206.410156 L 381.691406 171.960938 L 427.859375 202.890625 L 408.648438 150.671875 L 452.269531 116.21875 L 396.777344 118.394531 L 377.5625 66.171875 L 362.476562 119.738281 L 306.980469 121.914062 L 339.109375 143.4375 C 317.964844 162.707031 264.921875 203.8125 194.652344 206.570312 C 180.449219 207.125 165.53125 206.113281 150.042969 203.035156 C 150.042969 203.035156 185.015625 216.296875 233.460938 214.394531 " fill-opacity="1" fill-rule="nonzero"/></g><g clip-path="url(#0e31e3bd67)"><path fill="#ffffff" d="M 377.695312 40.242188 C 319.53125 40.242188 272.378906 87.5 272.378906 145.789062 C 272.378906 156.828125 274.074219 167.46875 277.210938 177.472656 C 281.789062 175.183594 286.164062 172.816406 290.332031 170.414062 C 288.136719 162.582031 286.960938 154.324219 286.960938 145.789062 C 286.960938 95.570312 327.582031 54.855469 377.695312 54.855469 C 427.808594 54.855469 468.429688 95.570312 468.429688 145.789062 C 468.429688 196.011719 427.808594 236.722656 377.695312 236.722656 C 350.519531 236.722656 326.136719 224.746094 309.507812 205.773438 C 304.671875 207.660156 299.777344 209.378906 294.820312 210.925781 C 314.101562 235.53125 344.054688 251.335938 377.695312 251.335938 C 435.859375 251.335938 483.011719 204.082031 483.011719 145.789062 C 483.011719 87.5 435.859375 40.242188 377.695312 40.242188 " fill-opacity="1" fill-rule="nonzero"/></g><path fill="#ffffff" d="M 224.0625 131.691406 L 229.875 149.621094 L 248.683594 149.621094 L 233.464844 160.699219 L 239.277344 178.628906 L 224.0625 167.546875 L 208.84375 178.628906 L 214.65625 160.699219 L 199.441406 149.621094 L 218.25 149.621094 L 224.0625 131.691406 " fill-opacity="1" fill-rule="nonzero"/><path fill="#ffffff" d="M 251.125 72.601562 L 256.144531 88.078125 L 272.378906 88.078125 L 259.246094 97.640625 L 264.261719 113.117188 L 251.125 103.554688 L 237.992188 113.117188 L 243.007812 97.640625 L 229.875 88.078125 L 246.109375 88.078125 L 251.125 72.601562 " fill-opacity="1" fill-rule="nonzero"/><path fill="#ffffff" d="M 168.230469 166.804688 L 171.160156 175.835938 L 180.632812 175.835938 L 172.972656 181.417969 L 175.898438 190.445312 L 168.230469 184.867188 L 160.570312 190.445312 L 163.496094 181.417969 L 155.832031 175.835938 L 165.304688 175.835938 L 168.230469 166.804688 " fill-opacity="1" fill-rule="nonzero"/><g fill="#ffffff" fill-opacity="1"><g transform="translate(543.580108, 155.402656)"><g><path d="M 42.84375 -48.484375 C 42.570312 -51.171875 41.421875 -53.253906 39.390625 -54.734375 C 37.367188 -56.222656 34.640625 -56.96875 31.203125 -56.96875 C 27.679688 -56.96875 24.976562 -56.242188 23.09375 -54.796875 C 21.21875 -53.359375 20.28125 -51.546875 20.28125 -49.359375 C 20.226562 -46.921875 21.269531 -45.070312 23.40625 -43.8125 C 25.550781 -42.5625 28.097656 -41.597656 31.046875 -40.921875 L 37.15625 -39.453125 C 41.101562 -38.566406 44.609375 -37.28125 47.671875 -35.59375 C 50.742188 -33.914062 53.160156 -31.75 54.921875 -29.09375 C 56.679688 -26.445312 57.5625 -23.226562 57.5625 -19.4375 C 57.539062 -13.21875 55.207031 -8.257812 50.5625 -4.5625 C 45.925781 -0.875 39.453125 0.96875 31.140625 0.96875 C 22.878906 0.96875 16.285156 -0.914062 11.359375 -4.6875 C 6.441406 -8.457031 3.894531 -14.019531 3.71875 -21.375 L 17.65625 -21.375 C 17.894531 -17.957031 19.238281 -15.390625 21.6875 -13.671875 C 24.132812 -11.953125 27.226562 -11.09375 30.96875 -11.09375 C 34.625 -11.09375 37.546875 -11.867188 39.734375 -13.421875 C 41.921875 -14.972656 43.023438 -16.992188 43.046875 -19.484375 C 43.023438 -21.785156 42.015625 -23.554688 40.015625 -24.796875 C 38.023438 -26.035156 35.175781 -27.097656 31.46875 -27.984375 L 24.0625 -29.84375 C 18.320312 -31.21875 13.789062 -33.398438 10.46875 -36.390625 C 7.144531 -39.378906 5.492188 -43.378906 5.515625 -48.390625 C 5.492188 -52.515625 6.597656 -56.117188 8.828125 -59.203125 C 11.054688 -62.296875 14.117188 -64.703125 18.015625 -66.421875 C 21.910156 -68.140625 26.34375 -69 31.3125 -69 C 36.363281 -69 40.773438 -68.132812 44.546875 -66.40625 C 48.328125 -64.675781 51.269531 -62.269531 53.375 -59.1875 C 55.476562 -56.113281 56.566406 -52.546875 56.640625 -48.484375 Z M 42.84375 -48.484375 "/></g></g></g><g fill="#ffffff" fill-opacity="1"><g transform="translate(611.68949, 155.402656)"><g><path d="M 3.328125 -56.203125 L 3.328125 -68.0625 L 59.234375 -68.0625 L 59.234375 -56.203125 L 38.390625 -56.203125 L 38.390625 0 L 24.15625 0 L 24.15625 -56.203125 Z M 3.328125 -56.203125 "/></g></g></g><g fill="#ffffff" fill-opacity="1"><g transform="translate(681.061625, 155.402656)"><g><path d="M 17.65625 0 L 2.234375 0 L 25.71875 -68.0625 L 44.265625 -68.0625 L 67.734375 0 L 52.3125 0 L 47.265625 -15.515625 L 22.703125 -15.515625 Z M 26.359375 -26.75 L 43.640625 -26.75 L 35.265625 -52.515625 L 34.734375 -52.515625 Z M 26.359375 -26.75 "/></g></g></g><g fill="#ffffff" fill-opacity="1"><g transform="translate(757.877346, 155.402656)"><g><path d="M 5.921875 0 L 5.921875 -68.0625 L 32.765625 -68.0625 C 40.503906 -68.0625 46.503906 -66.046875 50.765625 -62.015625 C 55.035156 -57.984375 57.171875 -52.585938 57.171875 -45.828125 C 57.171875 -41.179688 56.132812 -37.207031 54.0625 -33.90625 C 51.988281 -30.601562 49.015625 -28.117188 45.140625 -26.453125 L 59.59375 0 L 43.703125 0 L 30.8125 -24.125 L 20.3125 -24.125 L 20.3125 0 Z M 20.3125 -35.703125 L 30.078125 -35.703125 C 38.253906 -35.703125 42.34375 -39.078125 42.34375 -45.828125 C 42.34375 -52.804688 38.234375 -56.296875 30.015625 -56.296875 L 20.3125 -56.296875 Z M 20.3125 -35.703125 "/></g></g></g><g fill="#ffffff" fill-opacity="1"><g transform="translate(826.119645, 155.402656)"><g><path d="M 5.921875 0 L 5.921875 -68.0625 L 20.3125 -68.0625 L 20.3125 -11.859375 L 49.484375 -11.859375 L 49.484375 0 Z M 5.921875 0 "/></g></g></g><g fill="#ffffff" fill-opacity="1"><g transform="translate(886.054356, 155.402656)"><g><path d="M 20.3125 -68.0625 L 20.3125 0 L 5.921875 0 L 5.921875 -68.0625 Z M 20.3125 -68.0625 "/></g></g></g><g fill="#ffffff" fill-opacity="1"><g transform="translate(919.138946, 155.402656)"><g><path d="M 3.328125 -56.203125 L 3.328125 -68.0625 L 59.234375 -68.0625 L 59.234375 -56.203125 L 38.390625 -56.203125 L 38.390625 0 L 24.15625 0 L 24.15625 -56.203125 Z M 3.328125 -56.203125 "/></g></g></g><g fill="#ffffff" fill-opacity="1"><g transform="translate(988.511079, 155.402656)"><g><path d="M 5.921875 0 L 5.921875 -68.0625 L 51.78125 -68.0625 L 51.78125 -56.203125 L 20.3125 -56.203125 L 20.3125 -39.984375 L 49.421875 -39.984375 L 49.421875 -28.125 L 20.3125 -28.125 L 20.3125 -11.859375 L 51.921875 -11.859375 L 51.921875 0 Z M 5.921875 0 "/></g></g></g><g fill="#ffffff" fill-opacity="1"><g transform="translate(587.5607, 216.002592)"><g><path d="M 3.765625 0 L 3.765625 -31.140625 L 14.296875 -31.140625 C 16.734375 -31.140625 18.726562 -30.695312 20.28125 -29.8125 C 21.84375 -28.9375 23 -27.753906 23.75 -26.265625 C 24.5 -24.773438 24.875 -23.113281 24.875 -21.28125 C 24.875 -19.445312 24.5 -17.78125 23.75 -16.28125 C 23.007812 -14.78125 21.863281 -13.585938 20.3125 -12.703125 C 18.757812 -11.816406 16.773438 -11.375 14.359375 -11.375 L 7.546875 -11.375 L 7.546875 0 Z M 7.546875 -14.71875 L 14.234375 -14.71875 C 16.734375 -14.71875 18.507812 -15.34375 19.5625 -16.59375 C 20.625 -17.851562 21.15625 -19.414062 21.15625 -21.28125 C 21.15625 -23.15625 20.625 -24.707031 19.5625 -25.9375 C 18.5 -27.175781 16.703125 -27.796875 14.171875 -27.796875 L 7.546875 -27.796875 Z M 7.546875 -14.71875 "/></g></g></g><g fill="#ffffff" fill-opacity="1"><g transform="translate(624.831996, 216.002592)"><g><path d="M 30.046875 -15.5625 C 30.046875 -12.28125 29.453125 -9.441406 28.265625 -7.046875 C 27.078125 -4.660156 25.445312 -2.816406 23.375 -1.515625 C 21.3125 -0.222656 18.953125 0.421875 16.296875 0.421875 C 13.640625 0.421875 11.273438 -0.222656 9.203125 -1.515625 C 7.140625 -2.816406 5.515625 -4.660156 4.328125 -7.046875 C 3.140625 -9.441406 2.546875 -12.28125 2.546875 -15.5625 C 2.546875 -18.851562 3.140625 -21.691406 4.328125 -24.078125 C 5.515625 -26.472656 7.140625 -28.316406 9.203125 -29.609375 C 11.273438 -30.910156 13.640625 -31.5625 16.296875 -31.5625 C 18.953125 -31.5625 21.3125 -30.910156 23.375 -29.609375 C 25.445312 -28.316406 27.078125 -26.472656 28.265625 -24.078125 C 29.453125 -21.691406 30.046875 -18.851562 30.046875 -15.5625 Z M 26.390625 -15.5625 C 26.390625 -18.257812 25.941406 -20.535156 25.046875 -22.390625 C 24.148438 -24.242188 22.9375 -25.644531 21.40625 -26.59375 C 19.882812 -27.550781 18.179688 -28.03125 16.296875 -28.03125 C 14.410156 -28.03125 12.703125 -27.550781 11.171875 -26.59375 C 9.648438 -25.644531 8.441406 -24.242188 7.546875 -22.390625 C 6.648438 -20.535156 6.203125 -18.257812 6.203125 -15.5625 C 6.203125 -12.875 6.648438 -10.597656 7.546875 -8.734375 C 8.441406 -6.878906 9.648438 -5.472656 11.171875 -4.515625 C 12.703125 -3.566406 14.410156 -3.09375 16.296875 -3.09375 C 18.179688 -3.09375 19.882812 -3.566406 21.40625 -4.515625 C 22.9375 -5.472656 24.148438 -6.878906 25.046875 -8.734375 C 25.941406 -10.597656 26.390625 -12.875 26.390625 -15.5625 Z M 26.390625 -15.5625 "/></g></g></g><g fill="#ffffff" fill-opacity="1"><g transform="translate(667.511703, 216.002592)"><g><path d="M 3.765625 0 L 3.765625 -31.140625 L 7.546875 -31.140625 L 7.546875 -3.34375 L 22.015625 -3.34375 L 22.015625 0 Z M 3.765625 0 "/></g></g></g><g fill="#ffffff" fill-opacity="1"><g transform="translate(701.683788, 216.002592)"><g><path d="M 1.09375 -31.140625 L 5.40625 -31.140625 L 14.046875 -16.609375 L 14.40625 -16.609375 L 23.046875 -31.140625 L 27.359375 -31.140625 L 16.109375 -12.828125 L 16.109375 0 L 12.34375 0 L 12.34375 -12.828125 Z M 1.09375 -31.140625 "/></g></g></g><g fill="#ffffff" fill-opacity="1"><g transform="translate(740.231226, 216.002592)"><g><path d="M 3.765625 0 L 3.765625 -31.140625 L 22.4375 -31.140625 L 22.4375 -27.796875 L 7.546875 -27.796875 L 7.546875 -17.265625 L 21.046875 -17.265625 L 21.046875 -13.921875 L 7.546875 -13.921875 L 7.546875 0 Z M 3.765625 0 "/></g></g></g><g fill="#ffffff" fill-opacity="1"><g transform="translate(775.436379, 216.002592)"><g><path d="M 5.046875 0 L 1.09375 0 L 12.53125 -31.140625 L 16.421875 -31.140625 L 27.859375 0 L 23.90625 0 L 20.765625 -8.8125 L 8.171875 -8.8125 Z M 9.359375 -12.15625 L 19.578125 -12.15625 L 14.59375 -26.203125 L 14.359375 -26.203125 Z M 9.359375 -12.15625 "/></g></g></g><g fill="#ffffff" fill-opacity="1"><g transform="translate(814.469957, 216.002592)"><g><path d="M 28.828125 -21.40625 L 25.0625 -21.40625 C 24.75 -22.84375 24.160156 -24.050781 23.296875 -25.03125 C 22.441406 -26.019531 21.40625 -26.765625 20.1875 -27.265625 C 18.96875 -27.773438 17.671875 -28.03125 16.296875 -28.03125 C 14.410156 -28.03125 12.703125 -27.550781 11.171875 -26.59375 C 9.648438 -25.644531 8.441406 -24.242188 7.546875 -22.390625 C 6.648438 -20.535156 6.203125 -18.257812 6.203125 -15.5625 C 6.203125 -12.875 6.648438 -10.597656 7.546875 -8.734375 C 8.441406 -6.878906 9.648438 -5.472656 11.171875 -4.515625 C 12.703125 -3.566406 14.410156 -3.09375 16.296875 -3.09375 C 17.671875 -3.09375 18.96875 -3.347656 20.1875 -3.859375 C 21.40625 -4.367188 22.441406 -5.113281 23.296875 -6.09375 C 24.160156 -7.082031 24.75 -8.296875 25.0625 -9.734375 L 28.828125 -9.734375 C 28.441406 -7.597656 27.65625 -5.769531 26.46875 -4.25 C 25.28125 -2.738281 23.8125 -1.582031 22.0625 -0.78125 C 20.3125 0.0195312 18.390625 0.421875 16.296875 0.421875 C 13.640625 0.421875 11.273438 -0.222656 9.203125 -1.515625 C 7.140625 -2.816406 5.515625 -4.660156 4.328125 -7.046875 C 3.140625 -9.441406 2.546875 -12.28125 2.546875 -15.5625 C 2.546875 -18.851562 3.140625 -21.691406 4.328125 -24.078125 C 5.515625 -26.472656 7.140625 -28.316406 9.203125 -29.609375 C 11.273438 -30.910156 13.640625 -31.5625 16.296875 -31.5625 C 18.390625 -31.5625 20.3125 -31.15625 22.0625 -30.34375 C 23.8125 -29.539062 25.28125 -28.378906 26.46875 -26.859375 C 27.65625 -25.347656 28.441406 -23.53125 28.828125 -21.40625 Z M 28.828125 -21.40625 "/></g></g></g><g fill="#ffffff" fill-opacity="1"><g transform="translate(855.691209, 216.002592)"><g><path d="M 2.0625 -27.796875 L 2.0625 -31.140625 L 25.421875 -31.140625 L 25.421875 -27.796875 L 15.625 -27.796875 L 15.625 0 L 11.859375 0 L 11.859375 -27.796875 Z M 2.0625 -27.796875 "/></g></g></g><g fill="#ffffff" fill-opacity="1"><g transform="translate(893.266359, 216.002592)"><g><path d="M 30.046875 -15.5625 C 30.046875 -12.28125 29.453125 -9.441406 28.265625 -7.046875 C 27.078125 -4.660156 25.445312 -2.816406 23.375 -1.515625 C 21.3125 -0.222656 18.953125 0.421875 16.296875 0.421875 C 13.640625 0.421875 11.273438 -0.222656 9.203125 -1.515625 C 7.140625 -2.816406 5.515625 -4.660156 4.328125 -7.046875 C 3.140625 -9.441406 2.546875 -12.28125 2.546875 -15.5625 C 2.546875 -18.851562 3.140625 -21.691406 4.328125 -24.078125 C 5.515625 -26.472656 7.140625 -28.316406 9.203125 -29.609375 C 11.273438 -30.910156 13.640625 -31.5625 16.296875 -31.5625 C 18.953125 -31.5625 21.3125 -30.910156 23.375 -29.609375 C 25.445312 -28.316406 27.078125 -26.472656 28.265625 -24.078125 C 29.453125 -21.691406 30.046875 -18.851562 30.046875 -15.5625 Z M 26.390625 -15.5625 C 26.390625 -18.257812 25.941406 -20.535156 25.046875 -22.390625 C 24.148438 -24.242188 22.9375 -25.644531 21.40625 -26.59375 C 19.882812 -27.550781 18.179688 -28.03125 16.296875 -28.03125 C 14.410156 -28.03125 12.703125 -27.550781 11.171875 -26.59375 C 9.648438 -25.644531 8.441406 -24.242188 7.546875 -22.390625 C 6.648438 -20.535156 6.203125 -18.257812 6.203125 -15.5625 C 6.203125 -12.875 6.648438 -10.597656 7.546875 -8.734375 C 8.441406 -6.878906 9.648438 -5.472656 11.171875 -4.515625 C 12.703125 -3.566406 14.410156 -3.09375 16.296875 -3.09375 C 18.179688 -3.09375 19.882812 -3.566406 21.40625 -4.515625 C 22.9375 -5.472656 24.148438 -6.878906 25.046875 -8.734375 C 25.941406 -10.597656 26.390625 -12.875 26.390625 -15.5625 Z M 26.390625 -15.5625 "/></g></g></g><g fill="#ffffff" fill-opacity="1"><g transform="translate(935.946075, 216.002592)"><g><path d="M 3.765625 0 L 3.765625 -31.140625 L 14.296875 -31.140625 C 16.722656 -31.140625 18.71875 -30.722656 20.28125 -29.890625 C 21.84375 -29.066406 23 -27.9375 23.75 -26.5 C 24.5 -25.0625 24.875 -23.425781 24.875 -21.59375 C 24.875 -19.519531 24.398438 -17.710938 23.453125 -16.171875 C 22.503906 -14.640625 21.035156 -13.535156 19.046875 -12.859375 L 26.09375 0 L 21.703125 0 L 15.140625 -12.171875 C 14.890625 -12.160156 14.628906 -12.15625 14.359375 -12.15625 L 7.546875 -12.15625 L 7.546875 0 Z M 7.546875 -15.5625 L 14.234375 -15.5625 C 16.722656 -15.5625 18.5 -16.097656 19.5625 -17.171875 C 20.625 -18.253906 21.15625 -19.726562 21.15625 -21.59375 C 21.15625 -23.46875 20.617188 -24.96875 19.546875 -26.09375 C 18.484375 -27.226562 16.691406 -27.796875 14.171875 -27.796875 L 7.546875 -27.796875 Z M 7.546875 -15.5625 "/></g></g></g><g fill="#ffffff" fill-opacity="1"><g transform="translate(973.399665, 216.002592)"><g><path d="M 1.09375 -31.140625 L 5.40625 -31.140625 L 14.046875 -16.609375 L 14.40625 -16.609375 L 23.046875 -31.140625 L 27.359375 -31.140625 L 16.109375 -12.828125 L 16.109375 0 L 12.34375 0 L 12.34375 -12.828125 Z M 1.09375 -31.140625 "/></g></g></g><path stroke-linecap="round" transform="matrix(0.000000000000000138, 2.256529, -2.249777, 0.000000000000000138, 511.164488, 40.058951)" fill="none" stroke-linejoin="miter" d="M 0.500126 0.500239 L 93.225863 0.500239 " stroke="#edb641" stroke-width="1" stroke-opacity="1" stroke-miterlimit="4"/></svg>
